# xmcd CD database file
#
# Track frame offsets:
#	150
#	24399
#	45463
#	58540
#	81158
#	97810
#	119312
#	139206
#	152142
#	166830
#
# Disc length: 2479 seconds
#
# Revision: 0
# Processed by: cddbd v1.5.2PL0 Copyright (c) Steve Scherf et al.
# Submitted via: CDex 1.70beta2
#
DISCID=7309ad0a
DTITLE=Victoria Corrigan - Victoria Corrigan
DYEAR=1900
DGENRE=Jazz
TTITLE0=Tell me more and more and then
TTITLE1=Miss Celie's blues
TTITLE2=Doctor Jazz
TTITLE3=Country Man
TTITLE4=Pennies from Heaven
TTITLE5=Evenin'
TTITLE6=Small day tomorrow
TTITLE7='deed I do
TTITLE8=Why don't you do right
TTITLE9=Lullaby of the leaves
EXTD=
EXTT0=
EXTT1=
EXTT2=
EXTT3=
EXTT4=
EXTT5=
EXTT6=
EXTT7=
EXTT8=
EXTT9=
PLAYORDER=
